<svg width="46" height="13" viewBox="0 0 46 13" fill="none" xmlns="http://www.w3.org/2000/svg">
<path d="M1.05399 4.91608C0.448148 5.219 0.448148 6.20349 1.05399 6.50641C5.74927 9.08124 10.5203 11.4289 15.6699 12.792C16.4272 12.9435 17.1845 12.1105 16.7302 11.4289C15.6699 9.91427 14.3825 8.62686 12.8679 7.49091C23.4702 7.79383 34.451 9.2327 44.9018 6.7336C45.6591 6.58214 45.5077 5.29485 44.7502 5.37058C33.9208 6.7336 23.1671 5.67338 12.3377 5.52204C13.4736 4.23463 14.6096 2.94721 15.7455 1.73553C16.2757 1.20542 15.9727 0.0693362 15.064 0.145067C10.0659 0.751032 5.37062 2.4171 1.05399 4.91608ZM10.0659 5.74911C9.38432 6.20349 9.53578 7.49091 10.596 7.49091C10.6717 7.49091 10.7475 7.49091 10.7475 7.49091C11.6562 8.39967 12.565 9.2327 13.4738 10.2172C9.99017 9.00551 6.73376 7.49091 3.47736 5.74923C6.43084 4.23463 9.46005 3.09867 12.7165 2.49283C11.9592 3.32586 11.2019 4.23463 10.3688 5.06778C10.0659 5.219 9.99017 5.52204 10.0659 5.74911Z" fill="white"/>
</svg>
