<svg width="28" height="28" viewBox="0 0 28 28" fill="none" xmlns="http://www.w3.org/2000/svg">
<path d="M27.095 9.98306L18.7012 8.75123L14.9489 1.06981C14.8464 0.859502 14.6778 0.689249 14.4695 0.585762C13.9472 0.325375 13.3124 0.542364 13.0513 1.06981L9.29898 8.75123L0.905123 9.98306C0.673705 10.0164 0.462123 10.1266 0.30013 10.2935C0.10429 10.4968 -0.00362635 10.7702 9.30496e-05 11.0538C0.00381244 11.3373 0.118864 11.6078 0.319966 11.8058L6.39303 17.7846L4.95824 26.2272C4.92459 26.4236 4.94612 26.6256 5.02037 26.8102C5.09462 26.9949 5.21862 27.1549 5.37833 27.272C5.53803 27.3891 5.72703 27.4587 5.92391 27.4729C6.12079 27.4871 6.31767 27.4452 6.49221 27.3522L14.0001 23.3663L21.5079 27.3522C21.7129 27.4624 21.9509 27.4991 22.179 27.459C22.7543 27.3589 23.1411 26.808 23.0419 26.2272L21.6071 17.7846L27.6802 11.8058C27.8455 11.6422 27.9546 11.4285 27.9876 11.1949C28.0769 10.6107 27.6736 10.0699 27.095 9.98306Z" fill="#FFC107"/>
</svg>
